<mxfile host="app.diagrams.net" modified="2021-03-21T20:11:35.484Z" agent="5.0 (Windows NT 10.0; Win64; x64) AppleWebKit/537.36 (KHTML, like Gecko) Chrome/89.0.4389.90 Safari/537.36" etag="H1aphQ2K2gGQPU-q77KE" version="14.4.8" type="github">
  <diagram id="V3qSHd-S8Fk-TI2MRRrC" name="Page-1">
    <mxGraphModel dx="1849" dy="437" grid="1" gridSize="10" guides="1" tooltips="1" connect="1" arrows="1" fold="1" page="1" pageScale="1" pageWidth="827" pageHeight="1169" math="0" shadow="0">
      <root>
        <mxCell id="0" />
        <mxCell id="1" parent="0" />
        <mxCell id="86O8qyAVPP5pmmpOEpsZ-1" value="" style="whiteSpace=wrap;html=1;aspect=fixed;" parent="1" vertex="1">
          <mxGeometry x="-10" y="20" width="270" height="270" as="geometry" />
        </mxCell>
        <mxCell id="86O8qyAVPP5pmmpOEpsZ-2" value="&lt;span id=&quot;docs-internal-guid-17a5525f-7fff-796a-a62c-90382e2efcbe&quot;&gt;&lt;span style=&quot;font-size: 11pt ; font-family: &amp;#34;arial&amp;#34; ; background-color: transparent ; vertical-align: baseline&quot;&gt;Use Case 3: Program Concrete User Case&lt;/span&gt;&lt;/span&gt;" style="ellipse;whiteSpace=wrap;html=1;" parent="1" vertex="1">
          <mxGeometry x="140" y="160" width="120" height="80" as="geometry" />
        </mxCell>
        <mxCell id="86O8qyAVPP5pmmpOEpsZ-3" value="&lt;span id=&quot;docs-internal-guid-13b553e7-7fff-112c-91fc-fa9577263965&quot;&gt;&lt;span style=&quot;font-size: 11pt ; font-family: &amp;#34;arial&amp;#34; ; background-color: transparent ; vertical-align: baseline&quot;&gt;Use Case 2: Frequency Concrete User Case&lt;/span&gt;&lt;/span&gt;" style="ellipse;whiteSpace=wrap;html=1;" parent="1" vertex="1">
          <mxGeometry y="160" width="120" height="80" as="geometry" />
        </mxCell>
        <mxCell id="86O8qyAVPP5pmmpOEpsZ-4" value="user" style="shape=umlActor;verticalLabelPosition=bottom;verticalAlign=top;html=1;outlineConnect=0;" parent="1" vertex="1">
          <mxGeometry x="-100" y="100" width="30" height="60" as="geometry" />
        </mxCell>
        <mxCell id="86O8qyAVPP5pmmpOEpsZ-6" value="&lt;span id=&quot;docs-internal-guid-5c088867-7fff-5987-1df7-6b3fbcfb0827&quot;&gt;&lt;span style=&quot;font-size: 11pt ; font-family: &amp;#34;arial&amp;#34; ; background-color: transparent ; vertical-align: baseline&quot;&gt;Use case 1: Base Program Use case&lt;/span&gt;&lt;/span&gt;" style="ellipse;whiteSpace=wrap;html=1;" parent="1" vertex="1">
          <mxGeometry x="40" y="30" width="195" height="80" as="geometry" />
        </mxCell>
        <mxCell id="uVUEdFFhyDjWi4SeHx5y-3" value="" style="endArrow=block;dashed=1;endFill=1;endSize=12;html=1;entryX=0.5;entryY=0;entryDx=0;entryDy=0;" edge="1" parent="1" source="86O8qyAVPP5pmmpOEpsZ-6" target="86O8qyAVPP5pmmpOEpsZ-3">
          <mxGeometry width="160" relative="1" as="geometry">
            <mxPoint x="138" y="112" as="sourcePoint" />
            <mxPoint x="230" y="130" as="targetPoint" />
          </mxGeometry>
        </mxCell>
        <mxCell id="uVUEdFFhyDjWi4SeHx5y-4" value="&amp;lt;&amp;lt;include&amp;gt;&amp;gt;" style="text;html=1;strokeColor=none;fillColor=none;align=center;verticalAlign=middle;whiteSpace=wrap;rounded=0;" vertex="1" parent="1">
          <mxGeometry x="40" y="110" width="40" height="20" as="geometry" />
        </mxCell>
        <mxCell id="uVUEdFFhyDjWi4SeHx5y-5" value="" style="endArrow=block;dashed=1;endFill=1;endSize=12;html=1;entryX=0.5;entryY=0;entryDx=0;entryDy=0;" edge="1" parent="1" source="86O8qyAVPP5pmmpOEpsZ-6" target="86O8qyAVPP5pmmpOEpsZ-2">
          <mxGeometry width="160" relative="1" as="geometry">
            <mxPoint x="140" y="115.5" as="sourcePoint" />
            <mxPoint x="250" y="144.5" as="targetPoint" />
          </mxGeometry>
        </mxCell>
        <mxCell id="uVUEdFFhyDjWi4SeHx5y-6" value="&amp;lt;&amp;lt;include&amp;gt;&amp;gt;" style="text;html=1;strokeColor=none;fillColor=none;align=center;verticalAlign=middle;whiteSpace=wrap;rounded=0;" vertex="1" parent="1">
          <mxGeometry x="190" y="110" width="40" height="20" as="geometry" />
        </mxCell>
        <mxCell id="uVUEdFFhyDjWi4SeHx5y-9" value="" style="endArrow=none;html=1;entryX=0.003;entryY=0.6;entryDx=0;entryDy=0;entryPerimeter=0;exitX=1;exitY=0.3333333333333333;exitDx=0;exitDy=0;exitPerimeter=0;" edge="1" parent="1" source="86O8qyAVPP5pmmpOEpsZ-4" target="86O8qyAVPP5pmmpOEpsZ-6">
          <mxGeometry width="50" height="50" relative="1" as="geometry">
            <mxPoint x="-60" y="145" as="sourcePoint" />
            <mxPoint x="-10" y="95" as="targetPoint" />
          </mxGeometry>
        </mxCell>
      </root>
    </mxGraphModel>
  </diagram>
</mxfile>
